ffmpeg started on 2025-07-31 at 13:59:40
Report written to "D:\Convert\FFMetrics\reports\psnr_report-6.txt"
Log level: 32
Command line:
ffmpeg -hide_banner -nostdin -i "G:\\\xc0\xed\xe8\xec\xe5\\[\xd4\xe8\xeb\xfc\xec\xfb]\\[OVA]\\[OVA] \xca\xeb\xe8\xed\xee\xea \xea\xee\xf0\xee\xeb\xe5\xe2\xfb - \xc3\xf0\xe8\xec\xf3\xe0\xf0\\Queen's_Blade_Grimoire_[OVA]_[01]_[AniLibria_TV]_[BD_720p]_HEVC.mkv" -i "G:\\\xc0\xed\xe8\xec\xe5\\[\xd4\xe8\xeb\xfc\xec\xfb]\\[OVA]\\[OVA] \xca\xeb\xe8\xed\xee\xea \xea\xee\xf0\xee\xeb\xe5\xe2\xfb - \xc3\xf0\xe8\xec\xf3\xe0\xf0\\Queen's_Blade_Grimoire_[OVA]_[01]_[AniLibria_TV]_[BD_720p].mkv" -lavfi "[0:v]settb=AVTB,setpts=PTS-STARTPTS,format=pix_fmts=yuv420p10,fps=24000/1001,scale=1280:720:flags=bicubic[main];[1:v]settb=AVTB,setpts=PTS-STARTPTS,format=pix_fmts=yuv420p,fps=24000/1001,scale=1280:720:flags=bicubic[ref];[main][ref]psnr=eof_action=endall:stats_file='D\\:/Convert/FFMetrics/logs/psnr_logfile-6.txt'" -f null -
Input #0, matroska,webm, from 'G:\Аниме\[Фильмы]\[OVA]\[OVA] Клинок королевы - Гримуар\Queen's_Blade_Grimoire_[OVA]_[01]_[AniLibria_TV]_[BD_720p]_HEVC.mkv':
  Metadata:
    ENCODER         : Lavf61.7.100
  Duration: 00:29:26.84, start: -0.021000, bitrate: 801 kb/s
  Stream #0:0: Video: hevc (Main 10), yuv420p10le(tv, bt709, progressive), 1280x720 [SAR 1:1 DAR 16:9], 23.97 fps, 23.97 tbr, 1k tbn (default)
      Metadata:
        ENCODER         : Lavc61.19.100 libx265
        BPS             : 605189
        DURATION        : 00:29:26.840711111
        NUMBER_OF_FRAMES: 42362
        NUMBER_OF_BYTES : 133659043
        _STATISTICS_WRITING_APP: mkvpropedit v66.0.0 ('Josie') 64-bit
        _STATISTICS_WRITING_DATE_UTC: 2025-07-31 10:19:30
        _STATISTICS_TAGS: BPS DURATION NUMBER_OF_FRAMES NUMBER_OF_BYTES
  Stream #0:1(rus): Audio: aac (LC), 48000 Hz, stereo, fltp (default)
      Metadata:
        title           : Kari Mikrobelka Lali
        ENCODER         : Lavc61.19.100 aac
        BPS             : 193435
        DURATION        : 00:29:15.754000000
        NUMBER_OF_FRAMES: 82302
        NUMBER_OF_BYTES : 42453124
        _STATISTICS_WRITING_APP: mkvpropedit v66.0.0 ('Josie') 64-bit
        _STATISTICS_WRITING_DATE_UTC: 2025-07-31 10:19:30
        _STATISTICS_TAGS: BPS DURATION NUMBER_OF_FRAMES NUMBER_OF_BYTES
  Stream #0:2(rus): Subtitle: ass (ssa) (default) (forced)
      Metadata:
        title           : Надписи
        BPS             : 1
        DURATION        : 00:26:04.410000000
        NUMBER_OF_FRAMES: 2
        NUMBER_OF_BYTES : 257
        _STATISTICS_WRITING_APP: mkvpropedit v66.0.0 ('Josie') 64-bit
        _STATISTICS_WRITING_DATE_UTC: 2025-07-31 10:19:30
        _STATISTICS_TAGS: BPS DURATION NUMBER_OF_FRAMES NUMBER_OF_BYTES
  Stream #0:3(rus): Subtitle: ass (ssa)
      Metadata:
        title           : Полные
        BPS             : 116
        DURATION        : 00:28:14.840000000
        NUMBER_OF_FRAMES: 394
        NUMBER_OF_BYTES : 24773
        _STATISTICS_WRITING_APP: mkvpropedit v66.0.0 ('Josie') 64-bit
        _STATISTICS_WRITING_DATE_UTC: 2025-07-31 10:19:30
        _STATISTICS_TAGS: BPS DURATION NUMBER_OF_FRAMES NUMBER_OF_BYTES
Input #1, matroska,webm, from 'G:\Аниме\[Фильмы]\[OVA]\[OVA] Клинок королевы - Гримуар\Queen's_Blade_Grimoire_[OVA]_[01]_[AniLibria_TV]_[BD_720p].mkv':
  Metadata:
    encoder         : libebml v1.3.0 + libmatroska v1.4.1
    creation_time   : 2016-10-29T10:07:47.000000Z
  Duration: 00:29:26.85, start: 0.000000, bitrate: 1278 kb/s
  Stream #1:0: Video: h264 (Main), yuv420p(tv, bt709, progressive), 1280x720 [SAR 1:1 DAR 16:9], 23.97 fps, 23.97 tbr, 1k tbn (default)
      Metadata:
        BPS             : 959094
        BPS-eng         : 959094
        DURATION        : 00:29:26.849000000
        DURATION-eng    : 00:29:26.849000000
        NUMBER_OF_FRAMES: 42362
        NUMBER_OF_FRAMES-eng: 42362
        NUMBER_OF_BYTES : 211821829
        NUMBER_OF_BYTES-eng: 211821829
        _STATISTICS_WRITING_APP: mkvmerge v7.3.0 ('Nouages') 64bit built on Oct 22 2014 18:53:34
        _STATISTICS_WRITING_APP-eng: mkvmerge v7.3.0 ('Nouages') 64bit built on Oct 22 2014 18:53:34
        _STATISTICS_WRITING_DATE_UTC: 2016-10-29 10:07:47
        _STATISTICS_WRITING_DATE_UTC-eng: 2016-10-29 10:07:47
        _STATISTICS_TAGS: BPS DURATION NUMBER_OF_FRAMES NUMBER_OF_BYTES
        _STATISTICS_TAGS-eng: BPS DURATION NUMBER_OF_FRAMES NUMBER_OF_BYTES
  Stream #1:1(rus): Audio: aac (LC), 48000 Hz, stereo, fltp (default)
      Metadata:
        title           : Kari Mikrobelka Lali
        _STATISTICS_WRITING_APP: mkvmerge v7.3.0 ('Nouages') 64bit built on Oct 22 2014 18:53:34
        _STATISTICS_WRITING_APP-eng: mkvmerge v7.3.0 ('Nouages') 64bit built on Oct 22 2014 18:53:34
        _STATISTICS_WRITING_DATE_UTC: 2016-10-29 10:07:47
        _STATISTICS_WRITING_DATE_UTC-eng: 2016-10-29 10:07:47
        _STATISTICS_TAGS: BPS DURATION NUMBER_OF_FRAMES NUMBER_OF_BYTES
        _STATISTICS_TAGS-eng: BPS DURATION NUMBER_OF_FRAMES NUMBER_OF_BYTES
        BPS             : 192093
        BPS-eng         : 192093
        DURATION        : 00:29:15.754000000
        DURATION-eng    : 00:29:15.754000000
        NUMBER_OF_FRAMES: 82301
        NUMBER_OF_FRAMES-eng: 82301
        NUMBER_OF_BYTES : 42158623
        NUMBER_OF_BYTES-eng: 42158623
  Stream #1:2(jpn): Audio: aac (LC), 44100 Hz, stereo, fltp
      Metadata:
        title           : Оригинал
        BPS             : 125588
        BPS-eng         : 125588
        DURATION        : 00:29:26.853000000
        DURATION-eng    : 00:29:26.853000000
        NUMBER_OF_FRAMES: 76092
        NUMBER_OF_FRAMES-eng: 76092
        NUMBER_OF_BYTES : 27737000
        NUMBER_OF_BYTES-eng: 27737000
        _STATISTICS_WRITING_APP: mkvmerge v7.3.0 ('Nouages') 64bit built on Oct 22 2014 18:53:34
        _STATISTICS_WRITING_APP-eng: mkvmerge v7.3.0 ('Nouages') 64bit built on Oct 22 2014 18:53:34
        _STATISTICS_WRITING_DATE_UTC: 2016-10-29 10:07:47
        _STATISTICS_WRITING_DATE_UTC-eng: 2016-10-29 10:07:47
        _STATISTICS_TAGS: BPS DURATION NUMBER_OF_FRAMES NUMBER_OF_BYTES
        _STATISTICS_TAGS-eng: BPS DURATION NUMBER_OF_FRAMES NUMBER_OF_BYTES
  Stream #1:3(rus): Subtitle: ass (ssa) (default) (forced)
      Metadata:
        title           : Надписи
        _STATISTICS_WRITING_APP: mkvmerge v7.3.0 ('Nouages') 64bit built on Oct 22 2014 18:53:34
        _STATISTICS_WRITING_APP-eng: mkvmerge v7.3.0 ('Nouages') 64bit built on Oct 22 2014 18:53:34
        _STATISTICS_WRITING_DATE_UTC: 2016-10-29 10:07:47
        _STATISTICS_WRITING_DATE_UTC-eng: 2016-10-29 10:07:47
        _STATISTICS_TAGS: BPS DURATION NUMBER_OF_FRAMES NUMBER_OF_BYTES
        _STATISTICS_TAGS-eng: BPS DURATION NUMBER_OF_FRAMES NUMBER_OF_BYTES
        BPS             : 1
        BPS-eng         : 1
        DURATION        : 00:26:04.410000000
        DURATION-eng    : 00:26:04.410000000
        NUMBER_OF_FRAMES: 2
        NUMBER_OF_FRAMES-eng: 2
        NUMBER_OF_BYTES : 257
        NUMBER_OF_BYTES-eng: 257
  Stream #1:4(rus): Subtitle: ass (ssa)
      Metadata:
        title           : Полные
        _STATISTICS_WRITING_APP: mkvmerge v7.3.0 ('Nouages') 64bit built on Oct 22 2014 18:53:34
        _STATISTICS_WRITING_APP-eng: mkvmerge v7.3.0 ('Nouages') 64bit built on Oct 22 2014 18:53:34
        _STATISTICS_WRITING_DATE_UTC: 2016-10-29 10:07:47
        _STATISTICS_WRITING_DATE_UTC-eng: 2016-10-29 10:07:47
        _STATISTICS_TAGS: BPS DURATION NUMBER_OF_FRAMES NUMBER_OF_BYTES
        _STATISTICS_TAGS-eng: BPS DURATION NUMBER_OF_FRAMES NUMBER_OF_BYTES
        BPS             : 116
        BPS-eng         : 116
        DURATION        : 00:28:14.840000000
        DURATION-eng    : 00:28:14.840000000
        NUMBER_OF_FRAMES: 394
        NUMBER_OF_FRAMES-eng: 394
        NUMBER_OF_BYTES : 24773
        NUMBER_OF_BYTES-eng: 24773
Stream mapping:
  Stream #0:0 (hevc) -> settb:default
  Stream #1:0 (h264) -> settb:default
  psnr:default -> Stream #0:0 (wrapped_avframe)
  Stream #0:1 -> #0:1 (aac (native) -> pcm_s16le (native))
Output #0, null, to 'pipe:':
  Metadata:
    encoder         : Lavf61.7.100
  Stream #0:0: Video: wrapped_avframe, yuv420p10le(tv, bt709, progressive), 1280x720 [SAR 1:1 DAR 16:9], q=2-31, 200 kb/s, 23.98 fps, 23.98 tbn
      Metadata:
        encoder         : Lavc61.19.100 wrapped_avframe
  Stream #0:1(rus): Audio: pcm_s16le, 48000 Hz, stereo, s16, 1536 kb/s (default)
      Metadata:
        title           : Kari Mikrobelka Lali
        _STATISTICS_TAGS: BPS DURATION NUMBER_OF_FRAMES NUMBER_OF_BYTES
        BPS             : 193435
        DURATION        : 00:29:15.754000000
        NUMBER_OF_FRAMES: 82302
        NUMBER_OF_BYTES : 42453124
        _STATISTICS_WRITING_APP: mkvpropedit v66.0.0 ('Josie') 64-bit
        _STATISTICS_WRITING_DATE_UTC: 2025-07-31 10:19:30
        encoder         : Lavc61.19.100 pcm_s16le
frame=  481 fps=0.0 q=-0.0 size=N/A time=00:00:20.06 bitrate=N/A speed=38.6x    frame=  887 fps=862 q=-0.0 size=N/A time=00:00:36.99 bitrate=N/A speed=35.9x    frame= 1330 fps=865 q=-0.0 size=N/A time=00:00:55.47 bitrate=N/A speed=36.1x    frame= 1820 fps=884 q=-0.0 size=N/A time=00:01:15.90 bitrate=N/A speed=36.9x    frame= 2429 fps=946 q=-0.0 size=N/A time=00:01:41.30 bitrate=N/A speed=39.4x    frame= 2799 fps=904 q=-0.0 size=N/A time=00:01:56.74 bitrate=N/A speed=37.7x    frame= 3242 fps=899 q=-0.0 size=N/A time=00:02:15.21 bitrate=N/A speed=37.5x    frame= 3689 fps=893 q=-0.0 size=N/A time=00:02:33.86 bitrate=N/A speed=37.3x    frame= 4150 fps=895 q=-0.0 size=N/A time=00:02:53.08 bitrate=N/A speed=37.3x    frame= 4596 fps=893 q=-0.0 size=N/A time=00:03:11.69 bitrate=N/A speed=37.2x    frame= 5039 fps=888 q=-0.0 size=N/A time=00:03:30.16 bitrate=N/A speed=  37x    frame= 5527 fps=894 q=-0.0 size=N/A time=00:03:50.52 bitrate=N/A speed=37.3x    frame= 5901 fps=882 q=-0.0 size=N/A time=00:04:06.12 bitrate=N/A speed=36.8x    frame= 6396 fps=886 q=-0.0 size=N/A time=00:04:26.76 bitrate=N/A speed=36.9x    frame= 6991 fps=904 q=-0.0 size=N/A time=00:04:51.58 bitrate=N/A speed=37.7x    frame= 7380 fps=894 q=-0.0 size=N/A time=00:05:07.80 bitrate=N/A speed=37.3x    frame= 7769 fps=885 q=-0.0 size=N/A time=00:05:24.03 bitrate=N/A speed=36.9x    frame= 8228 fps=886 q=-0.0 size=N/A time=00:05:43.17 bitrate=N/A speed=36.9x    frame= 8655 fps=882 q=-0.0 size=N/A time=00:06:00.98 bitrate=N/A speed=36.8x    frame= 9109 fps=882 q=-0.0 size=N/A time=00:06:19.92 bitrate=N/A speed=36.8x    frame= 9510 fps=878 q=-0.0 size=N/A time=00:06:36.64 bitrate=N/A speed=36.6x    frame=10051 fps=885 q=-0.0 size=N/A time=00:06:59.21 bitrate=N/A speed=36.9x    frame=10490 fps=884 q=-0.0 size=N/A time=00:07:17.52 bitrate=N/A speed=36.9x    frame=10988 fps=886 q=-0.0 size=N/A time=00:07:38.29 bitrate=N/A speed=  37x    frame=11382 fps=882 q=-0.0 size=N/A time=00:07:54.72 bitrate=N/A speed=36.8x    frame=11816 fps=880 q=-0.0 size=N/A time=00:08:12.82 bitrate=N/A speed=36.7x    frame=12362 fps=887 q=-0.0 size=N/A time=00:08:35.59 bitrate=N/A speed=  37x    frame=12905 fps=893 q=-0.0 size=N/A time=00:08:58.24 bitrate=N/A speed=37.3x    frame=13329 fps=890 q=-0.0 size=N/A time=00:09:15.93 bitrate=N/A speed=37.1x    frame=13859 fps=895 q=-0.0 size=N/A time=00:09:38.03 bitrate=N/A speed=37.3x    frame=14366 fps=898 q=-0.0 size=N/A time=00:09:59.18 bitrate=N/A speed=37.4x    frame=14780 fps=895 q=-0.0 size=N/A time=00:10:16.44 bitrate=N/A speed=37.3x    frame=15300 fps=898 q=-0.0 size=N/A time=00:10:38.13 bitrate=N/A speed=37.5x    frame=15759 fps=898 q=-0.0 size=N/A time=00:10:57.28 bitrate=N/A speed=37.5x    frame=16156 fps=895 q=-0.0 size=N/A time=00:11:13.83 bitrate=N/A speed=37.3x    frame=16601 fps=893 q=-0.0 size=N/A time=00:11:32.40 bitrate=N/A speed=37.3x    frame=16992 fps=889 q=-0.0 size=N/A time=00:11:48.70 bitrate=N/A speed=37.1x    frame=17430 fps=888 q=-0.0 size=N/A time=00:12:06.97 bitrate=N/A speed=37.1x    frame=17848 fps=887 q=-0.0 size=N/A time=00:12:24.41 bitrate=N/A speed=  37x    frame=18385 fps=890 q=-0.0 size=N/A time=00:12:46.80 bitrate=N/A speed=37.1x    frame=18852 fps=891 q=-0.0 size=N/A time=00:13:06.28 bitrate=N/A speed=37.2x    frame=19248 fps=887 q=-0.0 size=N/A time=00:13:22.80 bitrate=N/A speed=  37x    frame=19646 fps=885 q=-0.0 size=N/A time=00:13:39.40 bitrate=N/A speed=36.9x    frame=20111 fps=885 q=-0.0 size=N/A time=00:13:58.79 bitrate=N/A speed=36.9x    frame=20740 fps=893 q=-0.0 size=N/A time=00:14:25.03 bitrate=N/A speed=37.2x    frame=21164 fps=891 q=-0.0 size=N/A time=00:14:42.71 bitrate=N/A speed=37.2x    frame=21657 fps=893 q=-0.0 size=N/A time=00:15:03.27 bitrate=N/A speed=37.2x    frame=22124 fps=893 q=-0.0 size=N/A time=00:15:22.75 bitrate=N/A speed=37.2x    frame=22538 fps=891 q=-0.0 size=N/A time=00:15:40.02 bitrate=N/A speed=37.2x    frame=22999 fps=891 q=-0.0 size=N/A time=00:15:59.24 bitrate=N/A speed=37.2x    frame=23559 fps=895 q=-0.0 size=N/A time=00:16:22.60 bitrate=N/A speed=37.3x    frame=24065 fps=896 q=-0.0 size=N/A time=00:16:43.71 bitrate=N/A speed=37.4x    frame=24610 fps=900 q=-0.0 size=N/A time=00:17:06.44 bitrate=N/A speed=37.5x    frame=25123 fps=901 q=-0.0 size=N/A time=00:17:27.83 bitrate=N/A speed=37.6x    frame=25664 fps=904 q=-0.0 size=N/A time=00:17:50.40 bitrate=N/A speed=37.7x    frame=26275 fps=909 q=-0.0 size=N/A time=00:18:15.88 bitrate=N/A speed=37.9x    frame=26758 fps=910 q=-0.0 size=N/A time=00:18:36.03 bitrate=N/A speed=37.9x    frame=27308 fps=912 q=-0.0 size=N/A time=00:18:58.97 bitrate=N/A speed=  38x    frame=27722 fps=911 q=-0.0 size=N/A time=00:19:16.23 bitrate=N/A speed=  38x    frame=28315 fps=914 q=-0.0 size=N/A time=00:19:40.97 bitrate=N/A speed=38.1x    frame=28760 fps=914 q=-0.0 size=N/A time=00:19:59.53 bitrate=N/A speed=38.1x    frame=29361 fps=917 q=-0.0 size=N/A time=00:20:24.59 bitrate=N/A speed=38.3x    frame=29843 fps=918 q=-0.0 size=N/A time=00:20:44.70 bitrate=N/A speed=38.3x    frame=30306 fps=917 q=-0.0 size=N/A time=00:21:04.01 bitrate=N/A speed=38.3x    frame=30830 fps=919 q=-0.0 size=N/A time=00:21:25.86 bitrate=N/A speed=38.3x    frame=31398 fps=921 q=-0.0 size=N/A time=00:21:49.55 bitrate=N/A speed=38.4x    frame=31865 fps=921 q=-0.0 size=N/A time=00:22:09.03 bitrate=N/A speed=38.4x    frame=32394 fps=923 q=-0.0 size=N/A time=00:22:31.09 bitrate=N/A speed=38.5x    frame=32749 fps=919 q=-0.0 size=N/A time=00:22:45.90 bitrate=N/A speed=38.4x    frame=33265 fps=920 q=-0.0 size=N/A time=00:23:07.42 bitrate=N/A speed=38.4x    frame=33813 fps=923 q=-0.0 size=N/A time=00:23:30.28 bitrate=N/A speed=38.5x    frame=34257 fps=922 q=-0.0 size=N/A time=00:23:48.80 bitrate=N/A speed=38.4x    frame=34775 fps=923 q=-0.0 size=N/A time=00:24:10.40 bitrate=N/A speed=38.5x    frame=35217 fps=922 q=-0.0 size=N/A time=00:24:28.84 bitrate=N/A speed=38.5x    frame=35796 fps=925 q=-0.0 size=N/A time=00:24:52.99 bitrate=N/A speed=38.6x    frame=36291 fps=925 q=-0.0 size=N/A time=00:25:13.63 bitrate=N/A speed=38.6x    frame=36855 fps=927 q=-0.0 size=N/A time=00:25:37.16 bitrate=N/A speed=38.7x    frame=37481 fps=931 q=-0.0 size=N/A time=00:26:03.27 bitrate=N/A speed=38.8x    frame=38043 fps=933 q=-0.0 size=N/A time=00:26:26.71 bitrate=N/A speed=38.9x    frame=38609 fps=935 q=-0.0 size=N/A time=00:26:50.31 bitrate=N/A speed=  39x    frame=39248 fps=939 q=-0.0 size=N/A time=00:27:16.96 bitrate=N/A speed=39.1x    frame=39794 fps=940 q=-0.0 size=N/A time=00:27:39.74 bitrate=N/A speed=39.2x    frame=40436 fps=944 q=-0.0 size=N/A time=00:28:06.51 bitrate=N/A speed=39.4x    frame=40984 fps=945 q=-0.0 size=N/A time=00:28:29.37 bitrate=N/A speed=39.4x    frame=41532 fps=947 q=-0.0 size=N/A time=00:28:52.23 bitrate=N/A speed=39.5x    frame=42116 fps=949 q=-0.0 size=N/A time=00:29:15.77 bitrate=N/A speed=39.6x    [Parsed_psnr_10 @ 0000020b331c27c0] PSNR y:43.243106 u:47.095663 v:48.311181 average:44.282288 min:7.210755 max:69.773972
[out#0/null @ 0000020b2ce64480] video:18202KiB audio:329208KiB subtitle:0KiB other streams:0KiB global headers:0KiB muxing overhead: unknown
frame=42362 fps=948 q=-0.0 Lsize=N/A time=00:29:15.77 bitrate=N/A speed=39.3x    
